<svg xmlns="http://www.w3.org/2000/svg" width="40" height="40" viewBox="0 0 40 40">
  <defs>
    <style>
      .cls-1 {
        fill: #d9d9d9;
        fill-rule: evenodd;
      }
    </style>
  </defs>
  <path id="avatar" class="cls-1" d="M124.782,1065c-0.03-3.2-.1-9.02-0.212-9.74-0.4-2.33-3.035-4.57-5.486-4.83q-2.915-.27-5.83-0.37a6.382,6.382,0,0,0,.519-1.49c0.408-1.74.637-3.41,0.831-4.84l-5.9.9-1.544-1.29,9.063-1.59a1.33,1.33,0,1,0-.462-2.62l-11.912,2.08a1.339,1.339,0,0,0-1.084,1.55,1.354,1.354,0,0,0,.583.88l2.721,2.26a26.952,26.952,0,0,0,.515,2.67,7.347,7.347,0,0,0,.545,1.48q-3.112.09-6.225,0.38c-2.451.26-5.086,2.5-5.486,4.83-0.114.72-.28,6.56-0.364,9.74H90v-40h40v40h-5.218Zm-12.177-32.23a1.34,1.34,0,0,0-1.545-1.08l-7.244,1.27a1.33,1.33,0,1,0,.46,2.62l7.245-1.26A1.339,1.339,0,0,0,112.605,1032.77Zm5.38,3.15a1.335,1.335,0,0,0-1.548-1.08l-13.335,2.38a1.34,1.34,0,0,0-1.079,1.55,1.307,1.307,0,0,0,1.548,1.08l13.335-2.38A1.333,1.333,0,0,0,117.985,1035.92Z" transform="translate(-90 -1025)"/>
</svg>
