<svg xmlns="http://www.w3.org/2000/svg" width="240" height="240" viewBox="0 0 240 240">
    <defs>
    <style>
      .cls-1 {
        fill: #d9d9d9;
        fill-rule: evenodd;
      }
    </style>
  </defs>
  <path class="cls-1" d="M209.432,199.986c-0.414-6.226-1.065-12.4-2.011-18.438-2.4-13.97-18.211-27.408-32.918-28.96-11.659-1.1-23.32-1.812-34.981-2.209a38.412,38.412,0,0,0,3.114-8.95c2.448-10.453,3.824-20.453,4.99-29.031l-35.41,5.367-9.259-7.719,54.374-9.522a8,8,0,1,0-2.768-15.759L83.085,97.281a7.974,7.974,0,0,0-3,14.54l16.329,13.608a160.484,160.484,0,0,0,3.089,16,43.847,43.847,0,0,0,3.266,8.871q-18.675.557-37.348,2.292c-14.707,1.552-30.515,15-32.918,28.96-0.942,6.01-1.592,12.155-2.006,18.353A120,120,0,1,1,209.432,199.986Zm-73.8-153.338a8.01,8.01,0,0,0-9.266-6.5L82.9,47.742A8,8,0,1,0,85.658,63.5l43.465-7.594A8,8,0,0,0,135.629,46.648Zm32.282,18.887a7.988,7.988,0,0,0-9.29-6.469L78.612,73.343a8.005,8.005,0,0,0-6.475,9.282c1.15,6.422,7.077,6.867,9.291,6.468l80.01-14.278A8,8,0,0,0,167.911,65.535Zm-49.9,121.313a52.015,52.015,0,0,1-3.285-6.3,10.265,10.265,0,0,1-.366-6.406,48.566,48.566,0,0,1,5.113-9.488c0.791-1.09.418-.821,1.452,0.679a50.64,50.64,0,0,1,4.35,8.074,9.907,9.907,0,0,1,.311,6.3c-0.593,1.441-1.235,2.794-1.9,4.1L122,186.88l7.985,52.556A93.874,93.874,0,0,1,120,240c-3.181,0-6.7-.164-10-0.411Zm47.245,16.824c-1.953.2-3.905,0.289-5.859,0.328l-6.623-.053c-0.7-.05-1.39-0.087-2.085-0.157a5.443,5.443,0,0,1-4.4-4.078,32.232,32.232,0,0,1,0-9.294,5.446,5.446,0,0,1,4.4-4.078,73.252,73.252,0,0,1,14.567,0,5.443,5.443,0,0,1,4.4,4.078,32.161,32.161,0,0,1,0,9.294A5.311,5.311,0,0,1,165.26,203.672ZM152,200h8a2,2,0,0,0,0-4h-8A2,2,0,0,0,152,200Zm12-10H152a2,2,0,0,0,0,4h12A2,2,0,0,0,164,190Z"/>
</svg>
