<svg xmlns="http://www.w3.org/2000/svg" width="75" height="50" viewBox="0 0 75 50">
  <defs>
    <style>
      .cls-1 {
        fill: #4d4d4d;
        fill-rule: evenodd;
      }
    </style>
  </defs>
  <path id="logo" class="cls-1" d="M133.8,63.449c-0.734.918-2.1,2.286-5.442,3.564-0.115.045-.23,0.087-0.345,0.129a25.183,25.183,0,0,1-8.652,1.513,16.546,16.546,0,0,1-2.783-.228,11.913,11.913,0,0,1-2.405-.669,12.051,12.051,0,0,1-1.858-.952,2.219,2.219,0,0,1,.049.354,0.153,0.153,0,0,1,.1.075,1.2,1.2,0,0,0,.01.575v0.01h0v0.145h0l0,0.015,0,0.028-0.012.055-0.023.111c-0.017.074-.033,0.147-0.05,0.221-0.034.148-.074,0.289-0.114,0.434-0.073.244-.159,0.476-0.248,0.71s-0.191.46-.3,0.686-0.22.448-.343,0.67-0.249.441-.385,0.662a6.87,6.87,0,0,1-.706-0.031c0.307,0.175.032,0.344,0.192,0.494a0.974,0.974,0,0,0-.313-0.073c0.184,0.234.121,0.355-.02,0.456a1.972,1.972,0,0,0-.494.365,1.679,1.679,0,0,0,.294.3c-0.03.04-.061,0.079-0.092,0.12a2.024,2.024,0,0,0-.641.228,0.7,0.7,0,0,0-.167.139,0.627,0.627,0,0,0-.1.158,1.416,1.416,0,0,0-.081.439l-0.012.1a1.361,1.361,0,0,1-.042.194c-0.1.113-.2,0.221-0.3,0.336s-0.214.231-.321,0.345c-0.054.056-.107,0.113-0.161,0.166l-0.165.155c-0.11.1-.219,0.2-0.33,0.3a1.192,1.192,0,0,1-.738.224c-0.3.016-.622,0-0.894,0.026a2,2,0,0,1,.289-0.792c0.07-.13.149-0.257,0.23-0.385s0.153-.27.222-0.409a1.324,1.324,0,0,0-.223-1.719c-0.256.244-.493,0.517-0.735,0.78-0.125.134-.251,0.262-0.381,0.383a3.764,3.764,0,0,1-.421.338,2.183,2.183,0,0,1-.479.245,2.081,2.081,0,0,1-.551.13,3.385,3.385,0,0,1-1.384-.184,3.1,3.1,0,0,1-.6-0.249,0.641,0.641,0,0,1-.259-0.231,0.223,0.223,0,0,1,0-.217,0.727,0.727,0,0,1,.177-0.221c0.084-.076.175-0.151,0.275-0.232,0.05-.042.1-0.082,0.151-0.123s0.1-.09.145-0.135a1.693,1.693,0,0,0,.24-0.28,0.589,0.589,0,0,0,.1-0.284l-0.43.08c0.222-.041.408-0.093,0.187-0.213-0.25.05-.5,0.138-0.781,0.2a2.7,2.7,0,0,1-.447.066,2.862,2.862,0,0,1-.512-0.015l-0.242-.128c-0.121-.061-0.242-0.123-0.242-0.123q-0.427,0-.852.034c-0.083.006-.164,0.015-0.242,0.016l-0.44.023c-0.07,0-.136.005-0.205,0.01l-0.207.016,0.486-.128a1.358,1.358,0,0,0,.28-0.092,2.365,2.365,0,0,0,.252-0.12,2.519,2.519,0,0,0,.221-0.159,1.471,1.471,0,0,0,.194-0.175,2.052,2.052,0,0,0,.3-0.411c0.041-.074.079-0.15,0.113-0.225s0.062-.159.088-0.239a3.011,3.011,0,0,0,.11-0.5,5.606,5.606,0,0,0-.209-2.121l-0.036-.126-0.018-.064-0.009-.031,0-.015,0-.008c0-.07,0,0.093,0,0.076V68.036c-0.023-.084-0.045-0.171-0.068-0.256-0.045.038-.091,0.075-0.14,0.11-0.077.057-.159,0.111-0.245,0.165s-0.176.1-.27,0.151a5.613,5.613,0,0,1-.615.266,1.183,1.183,0,0,1-.753.133,0.115,0.115,0,0,1-.038-0.136,0.574,0.574,0,0,1,.031-0.105q0.025-.062.053-0.126a3.735,3.735,0,0,0,.234-0.606c0.012-.052.022-0.1,0.03-0.15a0.766,0.766,0,0,0,.017-0.117,0.372,0.372,0,0,0-.013-0.113,0.274,0.274,0,0,0-.018-0.049,0.27,0.27,0,0,0-.028-0.047c-0.122.137-.144,0.156-0.239,0.249a0.674,0.674,0,0,0,.119-0.143c0.026-.054,0-0.083-0.111-0.059-0.073.081-.139,0.17-0.21,0.257s-0.147.172-.233,0.254a2.58,2.58,0,0,1-.3.219,2.789,2.789,0,0,1-.367.244l-0.226.044a0.814,0.814,0,0,0-.112.026l-0.107.038c-0.038.021-.077,0.043-0.116,0.063s-0.071.051-.105,0.074c-0.068.05-.133,0.1-0.194,0.146q-0.184.143-.342,0.272l-0.067-.159,0.016-.024,0.02-.01,0.04-.018,0.038-.02,0.019-.01,0.013-.021c0.016-.026.032-0.053,0.046-0.079a0.288,0.288,0,0,0,.028-0.1,1.113,1.113,0,0,0,.015-0.113c0-.043,0-0.087,0-0.132a1.331,1.331,0,0,0-.012-0.138c-0.013-.1-0.027-0.19-0.05-0.3s-0.048-.209-0.069-0.3-0.055-.21-0.061-0.248a1.872,1.872,0,0,0-.106-0.324,1.3,1.3,0,0,0-.082-0.163,3.283,3.283,0,0,0-.209-0.313c-0.039-.051-0.083-0.1-0.126-0.148-0.087-.1-0.177-0.193-0.273-0.284l-0.049-.043c-0.119.017-.238,0.038-0.356,0.059l-0.229.044,0.412,0.51a2.164,2.164,0,0,1,.4.774,2.243,2.243,0,0,1-.1,1.47,3.554,3.554,0,0,1-.873,1.156l-0.047.045c-0.161.149-.333,0.3-0.512,0.448-0.317.266-.693,0.565-1.12,0.887l-0.029.024c-0.636.485-1.146,0.843-1.65,1.156a3.111,3.111,0,0,1-1.77.661h0a2.109,2.109,0,0,1-1.651-.788c-0.178-.221-0.356-0.443-0.535-0.663-1.966-2.432-4.017-4.952-6.1-7.49l-0.873-1.063a6.431,6.431,0,0,0-1.219,1.836c-0.137.36-2.29-.272-2.381-1.424a3.961,3.961,0,0,1-.114-1.433,3.036,3.036,0,0,1,.373-1.154c-0.013-.011-0.025-0.021-0.041-0.033-0.231.581-.58,1.036-0.854,1.574a0.536,0.536,0,0,1,.179-0.526,4.109,4.109,0,0,0-1.187.829,9.592,9.592,0,0,0-.858,1.025,5.083,5.083,0,0,1,.7-4.041c0.359-.629.769-1.222,1.109-1.846l-0.406-.486a0.764,0.764,0,0,1-.908.327q0.192-.331.41-0.65c-0.415-.072-0.834-0.147-1.25-0.222a2.084,2.084,0,0,1-.924-0.426c-0.1.208-.213,0.416-0.332,0.616a5.956,5.956,0,0,1-1.544,1.759c-0.4-.471-0.667-0.928-1.095-1.4L69.407,57.4A5.511,5.511,0,0,0,68.9,56.91c-0.44-.248-0.841.1-0.95-0.306a2.961,2.961,0,0,1-.139-1.674c0.006-.439-0.183-0.9-1.28-1.823a8.353,8.353,0,0,0-2.04-.661,3.334,3.334,0,0,1-1.791-.777,3.174,3.174,0,0,1,.023-0.767,7.3,7.3,0,0,1,.2-0.944,1.928,1.928,0,0,0,.407-0.437,0.376,0.376,0,0,0-.183-0.253,5.264,5.264,0,0,1,.439-0.912,1.924,1.924,0,0,1,.5-0.581c0.129-.084.252-0.168,0.373-0.255a2.5,2.5,0,0,1,.614.174,1.791,1.791,0,0,1-.237-0.46,9.57,9.57,0,0,0,.791-0.68c-0.149-.151-0.3-0.3-0.45-0.444a2.132,2.132,0,0,1-.211-0.236c-0.637-.321-1.3-0.666-2.008-1.049a2.1,2.1,0,0,1-1.108-1.948c-0.29-.152-0.593-0.3-0.87-0.47A2.145,2.145,0,0,1,60.087,40a2.9,2.9,0,0,1,.772-1.208c0.1-.105.2-0.211,0.315-0.312a20.363,20.363,0,0,1,1.581-1.318,20.127,20.127,0,0,1,1.662-1.164l0.008-.006a5.236,5.236,0,0,1,.547-0.328,4.178,4.178,0,0,1,1.589-2.026c0.446-.39.987-0.838,1.11-0.933,0.642-.489,1.154-0.848,1.659-1.162a5.481,5.481,0,0,1,.585-0.35,2.594,2.594,0,0,1,1.22-.3,2.164,2.164,0,0,1,1.194.389,12.687,12.687,0,0,0,1.244.775,16.24,16.24,0,0,0,2.53,1.1,22.677,22.677,0,0,0,2.713.741,3.1,3.1,0,0,0-.487-1.7,3.142,3.142,0,0,1,1.752.412,3.275,3.275,0,0,1,1.02,1.023c0.152,0.23.286,0.469,0.418,0.7q0.459,0.053.917,0.1a1.414,1.414,0,0,1,.284-0.439c0.055,0.091.108,0.183,0.157,0.275,0.034,0.069.066,0.139,0.1,0.209,0.819,0.064,1.629.1,2.423,0.122l0.151-.043,0-.024c-0.03-.167-0.056-0.337-0.07-0.516a11.332,11.332,0,0,1-1.121-1.486,4.78,4.78,0,0,1-.653-1.824c0.387-.139.742-0.225,1.116-0.332,0.173-.05.352-0.1,0.539-0.171l0.048-.017a6.23,6.23,0,0,0,.646-0.278c0.41-.293.3-0.768,0.691-0.721a2.422,2.422,0,0,1,1.483.514,1.2,1.2,0,0,0,.727.106,5.658,5.658,0,0,0,1.439-.438,2.825,2.825,0,0,0,.678-0.574c0.267-.277.561-0.62,0.85-0.952a3.243,3.243,0,0,1,1.5-1.27,3.087,3.087,0,0,1,.693.436c0.126,0.1.256,0.211,0.386,0.332s0.259,0.255.387,0.393a1.988,1.988,0,0,0,.082.324c0.035,0.108.077,0.214,0.122,0.321-0.034.05,0.129,0.017,0.316-.015a6.189,6.189,0,0,1,.607.994,2.493,2.493,0,0,1,.26.857c0.007,0.177.015,0.354,0.027,0.524a2.191,2.191,0,0,1-.48.44,1.708,1.708,0,0,1,.524.108c0.035,0.46.092,0.9,0.153,1.333-0.074.153-.156,0.31-0.235,0.462s-0.157.3-.218,0.447a2.365,2.365,0,0,1,.562-0.189q0.071,0.429.147,0.852,1.418-.113,2.826-0.235c0.207-.18.41-0.367,0.609-0.567a17.568,17.568,0,0,0,1.333-1.562c0.212-.273.412-0.569,0.609-0.865s0.388-.6.573-0.9a0.656,0.656,0,0,1,.3-0.178,1.319,1.319,0,0,1,.2-0.043,2.1,2.1,0,0,1,.222-0.026,4.268,4.268,0,0,1,.941.067,10.113,10.113,0,0,0,1.351-.87c0.108-.085.215-0.171,0.321-0.263a4.064,4.064,0,0,0,.31-0.3,5.991,5.991,0,0,0,.576-0.715,3.855,3.855,0,0,1,.663-0.434,3.716,3.716,0,0,1,.681-0.29,5.481,5.481,0,0,1,.709-0.167c0.237-.05.479-0.086,0.724-0.116s0.493-.054.743-0.084,0.5-.076.744-0.124a6.9,6.9,0,0,0,.741-0.181,5.018,5.018,0,0,0,.717-0.308,1.265,1.265,0,0,1,.886.884,1.639,1.639,0,0,1,.014,1.767,5.105,5.105,0,0,1-.486.7,2.827,2.827,0,0,1-.271.285c-0.093.087-.189,0.169-0.287,0.245a4.031,4.031,0,0,1-.612.4c-0.106.057-.213,0.109-0.322,0.155a3.358,3.358,0,0,1-.334.114c0,0.019,0,.034.006,0.054,0.346-.141.678-0.263,1.013-0.364l0.5-.153-0.079.131a4.677,4.677,0,0,0,1.684.074c0.133-.016.266-0.035,0.4-0.056l0.2-.034,0.194-.047c0.258-.063.513-0.133,0.769-0.2a6,6,0,0,1-.376.588c-0.066.093-.135,0.181-0.205,0.267-0.035.042-.07,0.085-0.106,0.127s-0.073.078-.11,0.117a6.12,6.12,0,0,1-.961.8,6.044,6.044,0,0,1-1.073.572c-0.185.08-.373,0.155-0.562,0.225-0.095.035-.191,0.068-0.286,0.1l-0.291.086c-0.223.063-.448,0.124-0.673,0.183,0.523-.023,1.046-0.044,1.57-0.059,0.927-.027,1.855-0.038,2.783-0.027,0.889,0.01,1.777.039,2.665,0.094,3.647,0.217,7.752.794,10.884,3.315l0.149-.018a3.69,3.69,0,0,1,1.023-.574,4.009,4.009,0,0,1,.58-0.164c0.2-.045.42-0.082,0.652-0.113a0.649,0.649,0,0,1-.243.568,0.514,0.514,0,0,0-.1.628,7.582,7.582,0,0,1-1.114.607,2.134,2.134,0,0,1,.328.974,11.4,11.4,0,0,1,1.173.949,2.14,2.14,0,0,1,.68,1.675c-0.046,1.006-.689,1.627-1.664,2.458-0.5.429-1.015,0.831-1.089,0.888-0.641.49-1.152,0.848-1.656,1.16a4,4,0,0,1-1.163.574,2.2,2.2,0,0,1-1.4-.069c-0.264.178-.537,0.351-0.81,0.514l-0.076.977v0.054a4.189,4.189,0,0,0,.085.734c0.237,0.452.988,0.271,0.728,0.736a3.509,3.509,0,0,1-.321.613,12.181,12.181,0,0,1,1.856.879,21.028,21.028,0,0,1,2.76,2.029,15.38,15.38,0,0,1,2.478,2.427,5.975,5.975,0,0,1,.649,1.034,10.966,10.966,0,0,1,1.2,1.309A4.914,4.914,0,0,1,135,60.421,5.233,5.233,0,0,1,133.8,63.449ZM66.346,37.512c-0.037-.02-0.075-0.039-0.112-0.061a1.361,1.361,0,0,0-.72.317c-0.525.324-1.026,0.688-1.516,1.063s-0.974.764-1.425,1.187a1.9,1.9,0,0,0-.5.615c0.9,0.487,1.823.961,2.752,1.414-0.079.1-.114,0.169-0.084,0.2,0.973,0.931,1.872,1.946,2.767,2.952,1.338,1.5,2.648,3.032,3.951,4.566q0.7,0.831,1.4,1.661c-0.172.146-.342,0.3-0.507,0.449a2.584,2.584,0,0,0-.5.618q1.114,0.205,2.232.39,3.175,3.791,6.305,7.62Q83.46,64.24,86.5,68l0.537,0.666a1.47,1.47,0,0,0,.72-0.317c0.525-.323,1.026-0.688,1.516-1.062,0.135-.1,2.1-1.577,1.923-1.8q-1.973-2.447-3.963-4.885-2.766-3.394-5.554-6.769c0.684,0.047,1.369.076,2.054,0.078a1.538,1.538,0,0,0,.72-0.317c0.525-.324,1.026-0.689,1.517-1.064A18.5,18.5,0,0,0,87.4,51.344a3.9,3.9,0,0,0,.5-0.615,43.88,43.88,0,0,1-5.034-.371q-2.314-.273-4.613-0.658-1.743-2.088-3.5-4.161a25.634,25.634,0,0,0,4.963.485,27.645,27.645,0,0,0,3-.172,3.249,3.249,0,0,0,1.05-.6c0.557-.377,1.1-0.781,1.618-1.2A11.1,11.1,0,0,0,86.546,43c0.056-.061.369-0.354,0.089-0.323-0.912.1-1.827,0.161-2.744,0.171C77.659,42.868,71.772,40.423,66.346,37.512Zm60.114,2.7c0.114-.088,2.095-1.642,1.923-1.8-2.7-2.506-6.7-3.075-10.21-3.286a101.244,101.244,0,0,0-14.728.583c-5.173.449-10.352,0.962-15.549,1-4.54.022-9.278-.257-13.539-1.978a15.954,15.954,0,0,1-3.206-1.731,1.362,1.362,0,0,0-.72.318,18.412,18.412,0,0,0-1.517,1.062,12.12,12.12,0,0,0-1.923,1.8c3.563,2.511,8.047,3.292,12.291,3.583a41.343,41.343,0,0,0,6.014.12c-0.026.04-.015,0.09,0.1,0,1.024,1.545,2.955,4.161,3.979,5.707l6.606,9.97,6.224,9.394,2.074,3.13c0.156,0.235,2.1-1.279,2.237-1.381,0.489-.373.973-0.763,1.424-1.184a1.5,1.5,0,0,0,.5-0.615q-1.536-2.321-3.073-4.637l-6.606-9.971-6.224-9.394c-0.3-.45-0.6-0.9-0.893-1.349q1.592-.119,3.18-0.254c5.112-.429,10.227-0.986,15.36-1.064l0.515-.006a40.607,40.607,0,0,1,6.421.4,16.3,16.3,0,0,1,5.158,1.59,9.233,9.233,0,0,1,1.948,1.375,1.412,1.412,0,0,0,.72-0.317C125.467,40.949,125.969,40.584,126.459,40.21Zm-1.884,5.239,0.1,0.029a7.128,7.128,0,0,0-1.515-1.067,12.282,12.282,0,0,0-2.975-1.076l-0.086.038c-0.214.1-.427,0.195-0.641,0.291s-0.427.191-.638,0.289c-0.147.069-.293,0.142-0.438,0.213a4.333,4.333,0,0,1,.351.509,1,1,0,0,1,.117-0.03,1.179,1.179,0,0,1,.913.227q-0.366.174-.741,0.329a10.365,10.365,0,0,1,1.158,1.243l0.036,0.047a4.406,4.406,0,0,1,.314.438c0.262-.135.526-0.263,0.792-0.391s0.516-.234.779-0.338,0.527-.209.8-0.3,0.544-.174.822-0.25S124.286,45.505,124.575,45.449Zm5.828,10.69a13.94,13.94,0,0,0-2.16-2.094,18.97,18.97,0,0,0-2.486-1.836,11,11,0,0,0-2.35-1.008,29.244,29.244,0,0,0-5.759-1.046c-1.132-.114-2.268-0.191-3.405-0.245,0.422-.361.832-0.735,1.226-1.127a6.3,6.3,0,0,0,1.518-2.013,1.274,1.274,0,0,0,.041-0.871,1.684,1.684,0,0,0-.314-0.5,14.224,14.224,0,0,0-2.358-2.192,8.344,8.344,0,0,0-2.244-1.436,6.374,6.374,0,0,0-1.281-.3,19.613,19.613,0,0,0-7.5.563,14.115,14.115,0,0,0-4.286,1.758,11.809,11.809,0,0,0,1.827,1.9c0.47,0.4.953,0.79,1.46,1.141a1.371,1.371,0,0,0,.7.354,15.205,15.205,0,0,1,5.161-1.959,22.1,22.1,0,0,1,3.888-.483,17.635,17.635,0,0,1-1.942,1.863,46.755,46.755,0,0,1-4.212,3.161l-0.216.143a11.591,11.591,0,0,0,1.828,1.9,18.468,18.468,0,0,0,1.46,1.141,1.421,1.421,0,0,0,.7.355c2.422-.129,4.857-0.124,7.28-0.047q1.026,0.034,2.052.093a45.217,45.217,0,0,1,6.042.715,20.483,20.483,0,0,1,2.01.5,4.17,4.17,0,0,1-1.868,2.914,15.814,15.814,0,0,1-5.508,2.512,21.884,21.884,0,0,1-6.958.8,12.964,12.964,0,0,1-2.389-.363c0.075-1.2,1.6-1.824,2.588-2.133a16.585,16.585,0,0,1,5.8-.615,11.675,11.675,0,0,1,2.042.29c0.3,0.072-.046-0.3-0.072-0.327a10.906,10.906,0,0,0-1.115-1.108q-0.752-.678-1.554-1.29a3.567,3.567,0,0,0-1.017-.659,16.243,16.243,0,0,0-6.559-.049,9.146,9.146,0,0,0-2.869.924,2.108,2.108,0,0,0-1.24,1.6,2.153,2.153,0,0,0,.314,1.131,8.111,8.111,0,0,0,1.529,1.786,16.12,16.12,0,0,0,4.862,3.495,13.974,13.974,0,0,0,6.124.693,23,23,0,0,0,6.575-1.45,10.549,10.549,0,0,0,4.566-2.922,3.148,3.148,0,0,0,.74-1.8A2.787,2.787,0,0,0,130.4,56.139ZM85.394,39.874l-0.1,0A0.054,0.054,0,0,1,85.394,39.874Z" transform="translate(-60 -26)"/>
</svg>
